<svg width="24" height="24" viewBox="0 0 24 24" fill="none" xmlns="http://www.w3.org/2000/svg">
<path d="M11.9999 21C9.65659 20.9995 7.40584 20.0851 5.72615 18.4512C4.04647 16.8172 3.07031 14.5925 3.00519 12.2501C2.94007 9.90767 3.79113 7.63222 5.37745 5.90746C6.96376 4.1827 9.16023 3.14465 11.4999 3.014V3C11.1459 3.966 10.9999 4.911 10.9999 6C10.9999 8.38695 11.9481 10.6761 13.636 12.364C15.3238 14.0518 17.613 15 19.9999 15C20.2389 15 20.2539 15.018 20.4879 15C19.8674 16.7551 18.7178 18.2747 17.1977 19.3493C15.6775 20.4238 13.8615 21.0006 11.9999 21Z" stroke="white" stroke-width="2" stroke-linecap="round" stroke-linejoin="round"/>
</svg>